{
  "asset": {
    "version": "2.0",
    "generator": "Gargantuan FirstCompleteGame validation"
  },
  "scene": 0,
  "scenes": [
    {
      "name": "Collection Beacon",
      "nodes": [0]
    }
  ],
  "nodes": [
    {
      "name": "Collection Beacon",
      "mesh": 0
    }
  ],
  "meshes": [
    {
      "name": "Collection Beacon Mesh",
      "primitives": [
        {
          "attributes": {
            "POSITION": 0,
            "NORMAL": 1,
            "TEXCOORD_0": 2
          },
          "indices": 3,
          "material": 0
        }
      ]
    }
  ],
  "materials": [
    {
      "name": "Collection Beacon Material",
      "doubleSided": true,
      "pbrMetallicRoughness": {
        "baseColorTexture": {
          "index": 0
        },
        "metallicFactor": 0.0,
        "roughnessFactor": 0.7
      }
    }
  ],
  "textures": [
    {
      "name": "Collection Badge Texture",
      "source": 0
    }
  ],
  "images": [
    {
      "name": "Collection Badge",
      "uri": "collection-badge.png"
    }
  ],
  "buffers": [
    {
      "byteLength": 104,
      "uri": "data:application/octet-stream;base64,"
    }
  ],
  "bufferViews": [
    {
      "buffer": 0,
      "byteOffset": 0,
      "byteLength": 36,
      "target": 34962
    },
    {
      "buffer": 0,
      "byteOffset": 36,
      "byteLength": 36,
      "target": 34962
    },
    {
      "buffer": 0,
      "byteOffset": 72,
      "byteLength": 24,
      "target": 34962
    },
    {
      "buffer": 0,
      "byteOffset": 96,
      "byteLength": 6,
      "target": 34963
    }
  ],
  "accessors": [
    {
      "bufferView": 0,
      "byteOffset": 0,
      "componentType": 5126,
      "count": 3,
      "type": "VEC3",
      "min": [0.0, 0.0, 0.0],
      "max": [1.0, 1.0, 0.0]
    },
    {
      "bufferView": 1,
      "byteOffset": 0,
      "componentType": 5126,
      "count": 3,
      "type": "VEC3"
    },
    {
      "bufferView": 2,
      "byteOffset": 0,
      "componentType": 5126,
      "count": 3,
      "type": "VEC2"
    },
    {
      "bufferView": 3,
      "byteOffset": 0,
      "componentType": 5123,
      "count": 3,
      "type": "SCALAR"
    }
  ]
}
